<?xml version="1.0" encoding="utf-8"?>
<svg version="1.1" xmlns:xlink="http://www.w3.org/1999/xlink" width="20px" height="16px" xmlns="http://www.w3.org/2000/svg">
  <g transform="matrix(1 0 0 1 -19 -68 )">
    <path d="M 19.375 6.21875  C 19.390625 6.5  19.15625 6.734375  18.859375 6.734375  L 14.6875 6.734375  C 14.40625 6.734375  14.171875 6.5  14.171875 6.21875  C 14.171875 5.9375  14.40625 5.703125  14.6875 5.703125  L 18.859375 5.703125  C 19.140625 5.703125  19.375 5.9375  19.375 6.21875  Z M 19.390625 2.046875  C 19.390625 2.328125  19.15625 2.5625  18.859375 2.5625  L 13.65625 2.5625  C 13.375 2.5625  13.140625 2.328125  13.140625 2.046875  C 13.140625 1.765625  13.375 1.53125  13.65625 1.53125  L 18.875 1.53125  C 19.15625 1.53125  19.390625 1.765625  19.390625 2.046875  Z M 10.6875 9.9375  C 11.078125 9.78125  11.53125 9.859375  11.84375 10.171875  L 14.90625 13.234375  C 15.328125 13.65625  15.328125 14.34375  14.90625 14.765625  C 14.484375 15.1875  13.796875 15.1875  13.375 14.765625  L 10.3125 11.703125  C 10 11.390625  9.921875 10.9375  10.078125 10.546875  C 9.078125 11.40625  7.78125 11.953125  6.359375 11.953125  C 3.1875 11.953125  0.625 9.390625  0.625 6.21875  C 0.625 3.046875  3.1875 0.484374999999999  6.359375 0.484374999999999  C 9.53125 0.484374999999999  12.09375 3.046875  12.09375 6.21875  C 12.09375 7.640625  11.546875 8.9375  10.6875 9.9375  Z M 10 6.203125  C 10 4.1875  8.359375 2.5625  6.34375 2.5625  C 4.328125 2.5625  2.6875 4.203125  2.6875 6.21875  C 2.6875 8.234375  4.328125 9.875  6.34375 9.875  C 8.359375 9.875  10 8.21875  10 6.203125  Z M 15.21875 10.375  C 15.21875 10.09375  15.453125 9.859375  15.734375 9.859375  L 18.859375 9.859375  C 19.140625 9.859375  19.375 10.09375  19.375 10.375  C 19.375 10.65625  19.140625 10.890625  18.859375 10.890625  L 15.734375 10.890625  C 15.453125 10.890625  15.21875 10.65625  15.21875 10.375  Z " fill-rule="nonzero" fill="#5bb5c1" stroke="none" transform="matrix(1 0 0 1 19 68 )" />
  </g>
</svg>